<svg width="334" height="118" viewBox="0 0 334 118" fill="none" xmlns="http://www.w3.org/2000/svg">
<g clip-path="url(#clip0_1_188)">
<rect width="334" height="118" rx="30" fill="#42C83C"/>
<path fill-rule="evenodd" clip-rule="evenodd" d="M334.516 -61.6636C327.755 -54.9192 319.36 -45.6738 316.702 -35.1803C315.871 -31.9012 315.6 -28.4987 316.113 -25.013C315.553 -22.5456 315.316 -20.0107 315.496 -17.4252C315.429 -17.1866 315.365 -16.9474 315.304 -16.7075C314.832 -14.8433 314.541 -12.9394 314.472 -11.0029C314.153 -10.0972 313.873 -9.18093 313.639 -8.25493C313.569 -7.97778 313.502 -7.69976 313.44 -7.42088C307.277 -0.994927 300.58 7.21767 298.258 16.3823C296.927 21.6382 297.033 27.2109 299.503 32.9353C301.972 38.6569 306.794 44.508 314.854 50.3378C333.631 63.9194 351.102 64.6008 364.506 65.1235C365.751 65.172 366.96 65.2192 368.133 65.2752C375.053 65.6058 380.594 66.2443 384.45 69.1873C388.286 72.1149 390.528 77.3904 390.641 87.1986L391.23 87.2125C391.117 77.3552 388.866 71.8573 384.812 68.7629C380.778 65.6839 375.033 65.0518 368.142 64.7226C366.967 64.6665 365.757 64.6192 364.513 64.5705C351.115 64.0467 333.821 63.3704 315.202 49.9039C307.206 44.1197 302.466 38.3466 300.048 32.7434C297.631 27.1428 297.524 21.6899 298.831 16.5286C301.038 7.81837 307.27 -0.0503893 313.223 -6.34762L313.217 -6.31748C313.066 -5.98496 312.919 -5.6508 312.777 -5.31503C308.671 -0.207658 305.04 5.6107 303.454 11.8737C302.122 17.1295 302.228 22.7023 304.699 28.4266C307.168 34.1483 311.989 39.9993 320.049 45.8292C338.827 59.4108 356.298 60.0921 369.701 60.6149C370.946 60.6634 372.156 60.7106 373.328 60.7666C380.248 61.0972 385.79 61.7357 389.646 64.6787C393.481 67.6063 395.724 72.8818 395.837 82.69L396.426 82.7039C396.312 72.8465 394.061 67.3487 390.007 64.2543C385.973 61.1753 380.229 60.5432 373.337 60.2139C372.163 60.1578 370.953 60.1105 369.709 60.0619C356.311 59.538 339.016 58.8618 320.398 45.3953C312.401 39.6111 307.661 33.838 305.243 28.2347C302.826 22.6342 302.719 17.1812 304.027 12.02C305.326 6.89428 308.018 2.05999 311.227 -2.33413C309.732 0.396694 308.527 3.25466 307.778 6.21176C306.447 11.4676 306.553 17.0404 309.023 22.7647C311.492 28.4864 316.314 34.3374 324.374 40.1673C343.151 53.7489 360.622 54.4302 374.026 54.9529L374.027 54.953L374.027 54.953L374.032 54.9532L374.035 54.9533C375.277 55.0017 376.483 55.0488 377.653 55.1047C384.573 55.4353 390.114 56.0738 393.97 59.0168C397.806 61.9444 400.048 67.2199 400.161 77.0281L400.75 77.042C400.637 67.1847 398.386 61.6868 394.332 58.5924C390.298 55.5134 384.553 54.8813 377.662 54.552C376.487 54.4959 375.277 54.4486 374.033 54.4C360.635 53.8761 343.341 53.1999 324.723 39.7334C316.726 33.9492 311.986 28.1761 309.568 22.5728C307.151 16.9723 307.044 11.5193 308.351 6.35808C309.027 3.69005 310.081 1.10098 311.389 -1.38816C311.31 -1.10983 311.234 -0.830593 311.163 -0.550465C309.832 4.70541 309.938 10.2781 312.408 16.0025C314.878 21.7242 319.699 27.5752 327.759 33.4051C346.536 46.9867 364.007 47.668 377.411 48.1907L377.413 48.1908C378.657 48.2393 379.866 48.2865 381.038 48.3424C387.958 48.6731 393.5 49.3116 397.356 52.2546C401.191 55.1822 403.434 60.4577 403.547 70.2658L404.136 70.2797C404.022 60.4224 401.771 54.9246 397.717 51.8301C393.683 48.7512 387.939 48.1191 381.047 47.7898C379.872 47.7337 378.662 47.6864 377.419 47.6378C364.021 47.1139 346.726 46.4377 328.108 32.9711C320.111 27.187 315.371 21.4138 312.953 15.8106C310.536 10.21 310.429 4.75711 311.737 -0.404156C312.049 -1.63735 312.442 -2.85368 312.904 -4.05107C312.526 -0.0612955 313.062 4.07715 314.884 8.29803C317.353 14.0197 322.174 19.8707 330.234 25.7006C349.012 39.2822 366.483 39.9635 379.887 40.4863C381.131 40.5348 382.341 40.582 383.513 40.638C390.434 40.9686 395.975 41.6071 399.831 44.5501C403.666 47.4777 405.909 52.7532 406.022 62.5614L406.611 62.5753C406.497 52.718 404.246 47.2201 400.192 44.1257C396.158 41.0467 390.414 40.4146 383.522 40.0853C382.348 40.0292 381.138 39.9819 379.894 39.9333C366.496 39.4094 349.201 38.7332 330.583 25.2667C322.586 19.4825 317.847 13.7094 315.428 8.10615C313.458 3.5401 313.023 -0.927827 313.638 -5.21957C313.889 -5.60683 314.144 -5.99115 314.405 -6.37245C314.5 -6.4859 314.596 -6.599 314.691 -6.71171C314.993 -4.55495 315.595 -2.36604 316.549 -0.154496C319.019 5.56719 323.84 11.4182 331.9 17.2481C350.677 30.8297 368.148 31.511 381.552 32.0337C382.797 32.0823 384.007 32.1294 385.179 32.1855C392.099 32.5161 397.641 33.1546 401.497 36.0976C405.332 39.0252 407.575 44.3007 407.688 54.1088L408.277 54.1228C408.163 44.2654 405.912 38.7676 401.858 35.6731C397.824 32.5942 392.08 31.9621 385.188 31.6328C384.013 31.5767 382.803 31.5294 381.56 31.4808C368.162 30.9569 350.867 30.2807 332.249 16.8142C324.252 11.03 319.512 5.25685 317.094 -0.346367C316.079 -2.69751 315.472 -5.02263 315.205 -7.31108C315.906 -8.12094 316.613 -8.91061 317.32 -9.67886C317.388 -9.51174 317.458 -9.34449 317.531 -9.17711C320 -3.45543 324.821 2.39558 332.881 8.22546C351.658 21.8071 369.13 22.4884 382.533 23.0111L382.536 23.0112L382.539 23.0113L382.544 23.0115L382.549 23.0117C383.789 23.0601 384.993 23.1071 386.16 23.1628C393.08 23.4935 398.622 24.132 402.478 27.075C406.313 30.0025 408.556 35.2781 408.669 45.0862L409.258 45.1001C409.144 35.2428 406.893 29.745 402.839 26.6505C398.805 23.5716 393.061 22.9395 386.169 22.6102C384.995 22.5541 383.784 22.5068 382.541 22.4582C369.143 21.9343 351.848 21.258 333.23 7.79154C325.233 2.00735 320.493 -3.76577 318.075 -9.36899C317.963 -9.62885 317.856 -9.8884 317.754 -10.1476C318.804 -11.2763 319.85 -12.3571 320.87 -13.3861C323.641 -9.35593 327.684 -5.28522 333.298 -1.22476C352.075 12.3568 369.546 13.0382 382.95 13.5609C384.194 13.6094 385.404 13.6566 386.576 13.7126C393.497 14.0432 399.038 14.6817 402.894 17.6248C406.729 20.5523 408.972 25.8278 409.085 35.636L409.674 35.6499C409.56 25.7926 407.309 20.2947 403.255 17.2003C399.221 14.1213 393.477 13.4892 386.585 13.16C385.411 13.1039 384.201 13.0566 382.957 13.0079C369.559 12.4841 352.264 11.8078 333.646 -1.65868C328.019 -5.72854 324.005 -9.79291 321.278 -13.7965L321.462 -13.9816L321.704 -14.2227L321.268 -14.6096C321.162 -14.5036 321.055 -14.3969 320.948 -14.2896C320.912 -14.3453 320.875 -14.4009 320.839 -14.4565C322.59 -16.4008 324.356 -18.2163 326.028 -19.8846L325.593 -20.2715C323.961 -18.6436 322.233 -16.8699 320.515 -14.9682C320.295 -15.3213 320.086 -15.6739 319.886 -16.0259C322.924 -19.9899 326.328 -23.5689 329.413 -26.6468L328.978 -27.0338C325.951 -24.0145 322.597 -20.4939 319.577 -16.5845C319.251 -17.1868 318.954 -17.7873 318.683 -18.386C322.399 -24.5082 327.47 -29.9435 331.889 -34.3513L331.453 -34.7382C327.126 -30.4217 322.129 -25.0806 318.396 -19.0434C318.063 -19.8345 317.776 -20.6226 317.532 -21.4073C321.101 -29.7572 327.868 -37.1313 333.554 -42.8038L333.119 -43.1908C327.585 -37.6708 320.957 -30.4756 317.276 -22.2918C317.033 -23.1906 316.846 -24.0846 316.711 -24.9733C316.758 -25.1772 316.807 -25.3807 316.859 -25.5838C319.479 -35.9245 327.772 -45.0792 334.536 -51.8264L334.1 -52.2134C327.528 -45.6571 319.411 -36.7373 316.521 -26.6051C316.287 -29.4823 316.582 -32.2991 317.275 -35.034C319.895 -45.3747 328.188 -54.5295 334.952 -61.2766L334.516 -61.6636ZM314.565 -7.74698C314.494 -7.60943 314.425 -7.47159 314.356 -7.33344C314.43 -7.43885 314.504 -7.54402 314.579 -7.64894L314.569 -7.75098L314.565 -7.74698ZM316.271 -9.92497C316.483 -10.1989 316.697 -10.4708 316.912 -10.7408C316.829 -10.9725 316.75 -11.204 316.674 -11.4351C316.291 -10.8286 315.922 -10.215 315.567 -9.59472C315.736 -9.76501 315.905 -9.93378 316.073 -10.101L316.271 -9.92497ZM320.538 -13.8777C319.927 -13.2615 319.304 -12.6259 318.676 -11.9717C319.261 -12.6678 319.852 -13.3499 320.446 -14.0173L320.506 -13.9259L320.538 -13.8777ZM320.118 -14.527C319.907 -14.8623 319.705 -15.1972 319.511 -15.5317C318.664 -14.4074 317.85 -13.2529 317.081 -12.0709C317.162 -11.8049 317.248 -11.5385 317.34 -11.2718C318.25 -12.3927 319.182 -13.4787 320.118 -14.527ZM314.411 -8.72318L314.337 -8.58513C314.382 -8.75165 314.429 -8.91787 314.477 -9.08376C314.48 -9.01082 314.483 -8.93784 314.487 -8.86482L314.411 -8.72318ZM316.445 -12.1699C315.959 -11.4142 315.491 -10.6471 315.045 -9.86921C315.042 -10.2092 315.046 -10.5483 315.057 -10.8864C315.368 -11.7614 315.716 -12.6268 316.097 -13.4816C316.2 -13.0455 316.316 -12.6083 316.445 -12.1699ZM319.196 -16.0873C318.389 -15.0237 317.608 -13.932 316.867 -12.8146C316.726 -13.3312 316.605 -13.8462 316.501 -14.3595C317.054 -15.5233 317.666 -16.6668 318.326 -17.7879C318.592 -17.2222 318.882 -16.6553 319.196 -16.0873ZM318.028 -18.44C318.001 -18.5025 317.974 -18.5649 317.947 -18.6273C317.665 -19.281 317.413 -19.9327 317.192 -20.5822C316.768 -19.5203 316.398 -18.4432 316.09 -17.3524C316.139 -16.6852 316.216 -16.0147 316.323 -15.3412C316.849 -16.3921 317.42 -17.4256 318.028 -18.44ZM315.889 -14.445C315.806 -14.8682 315.735 -15.2902 315.676 -15.711C315.471 -14.7853 315.312 -13.8506 315.205 -12.9076C315.421 -13.4239 315.649 -13.9364 315.889 -14.445ZM316.911 -21.4547C316.588 -20.6891 316.292 -19.9152 316.026 -19.1335C316.027 -20.5832 316.158 -22.0159 316.4 -23.4288C316.541 -22.7733 316.711 -22.1152 316.911 -21.4547ZM292.347 19.8256C295.006 9.3321 303.401 0.0867039 310.162 -6.65766L310.597 -6.27068C303.833 0.476476 295.54 9.63121 292.92 19.9719C291.613 25.1332 291.72 30.5862 294.137 36.1867C296.555 41.7899 301.295 47.5631 309.292 53.3473C327.91 66.8138 345.204 67.49 358.602 68.0139C359.846 68.0625 361.056 68.1098 362.231 68.1659C369.122 68.4952 374.867 69.1273 378.901 72.2062C382.955 75.3007 385.206 80.7985 385.319 90.6558L384.731 90.6419C384.617 80.8338 382.375 75.5583 378.539 72.6307C374.684 69.6877 369.142 69.0492 362.222 68.7186C361.049 68.6625 359.84 68.6154 358.595 68.5668C345.191 68.0441 327.72 67.3628 308.943 53.7812C300.883 47.9513 296.061 42.1003 293.592 36.3786C291.122 30.6543 291.016 25.0815 292.347 19.8256ZM303.726 -4.08044C296.965 2.66393 288.57 11.9093 285.912 22.4029C284.58 27.6587 284.686 33.2315 287.156 38.9558C289.626 44.6775 294.447 50.5285 302.507 56.3584C321.284 69.94 338.755 70.6213 352.159 71.144L352.159 71.144C353.404 71.1926 354.614 71.2398 355.786 71.2958C362.706 71.6264 368.248 72.2649 372.104 75.2079C375.939 78.1355 378.182 83.411 378.295 93.2192L378.884 93.2331C378.77 83.3758 376.519 77.8779 372.465 74.7835C368.431 71.7045 362.687 71.0724 355.795 70.7432C354.621 70.687 353.41 70.6397 352.167 70.5911C338.769 70.0672 321.474 69.391 302.856 55.9245C294.859 50.1403 290.119 44.3672 287.701 38.764C285.284 33.1634 285.177 27.7104 286.485 22.5492C289.105 12.2084 297.398 3.05371 304.162 -3.69345L303.726 -4.08044ZM279.127 24.3578C281.786 13.8642 290.181 4.61884 296.942 -2.12553L297.377 -1.73854C290.613 5.00862 282.32 14.1633 279.7 24.5041C278.393 29.6654 278.5 35.1183 280.917 40.7189C283.335 46.3221 288.075 52.0952 296.071 57.8794C314.689 71.3459 331.984 72.0221 345.382 72.546C346.626 72.5946 347.836 72.642 349.01 72.6981C355.902 73.0273 361.647 73.6594 365.681 76.7384C369.735 79.8328 371.986 85.3307 372.099 95.188L371.51 95.1741C371.397 85.3659 369.155 80.0904 365.319 77.1628C361.463 74.2198 355.922 73.5813 349.002 73.2507C347.829 73.1947 346.62 73.1475 345.375 73.099C331.971 72.5762 314.5 71.8949 295.723 58.3133C287.663 52.4834 282.841 46.6324 280.372 40.9107C277.902 35.1864 277.795 29.6137 279.127 24.3578ZM289.952 -0.557824C283.191 6.18655 274.796 15.4319 272.138 25.9255C270.806 31.1814 270.912 36.7541 273.383 42.4784C275.852 48.2001 280.673 54.0511 288.734 59.881C307.511 73.4626 324.982 74.1439 338.386 74.6667C339.63 74.7152 340.84 74.7624 342.012 74.8184C348.933 75.149 354.474 75.7875 358.33 78.7305C362.165 81.6581 364.408 86.9336 364.521 96.7418L365.11 96.7557C364.996 86.8984 362.745 81.4005 358.691 78.3061C354.657 75.2271 348.913 74.595 342.021 74.2658C340.847 74.2097 339.637 74.1623 338.393 74.1137C324.995 73.5898 307.7 72.9136 289.082 59.4471C281.085 53.6629 276.346 47.8898 273.927 42.2866C271.511 36.686 271.403 31.2331 272.711 26.0718C275.331 15.731 283.624 6.57632 290.388 -0.170842L289.952 -0.557824ZM265.051 27.304C267.71 16.8105 276.105 7.56506 282.866 0.82069L283.301 1.20767C276.538 7.95483 268.244 17.1096 265.625 27.4503C264.317 32.6116 264.424 38.0645 266.841 43.6651C269.259 49.2683 273.999 55.0414 281.996 60.8256C300.614 74.2921 317.909 74.9684 331.307 75.4922C332.55 75.5408 333.76 75.5882 334.935 75.6443C341.827 75.9735 347.571 76.6056 351.605 79.6846C355.659 82.779 357.91 88.2769 358.024 98.1342L357.435 98.1203C357.322 88.3121 355.079 83.0366 351.243 80.109C347.388 77.166 341.846 76.5275 334.926 76.1969C333.754 76.1409 332.544 76.0937 331.299 76.0452C317.895 75.5225 300.424 74.8411 281.647 61.2595C273.587 55.4297 268.765 49.5786 266.296 43.8569C263.826 38.1326 263.72 32.5599 265.051 27.304ZM275.764 2.16744C269.003 8.91181 260.608 18.1572 257.95 28.6507C256.618 33.9066 256.724 39.4794 259.195 45.2037C261.664 50.9254 266.485 56.7764 274.545 62.6063C293.323 76.1879 310.794 76.8692 324.198 77.3919C325.442 77.4405 326.652 77.4876 327.824 77.5437C334.744 77.8743 340.286 78.5128 344.142 81.4558C347.977 84.3834 350.22 89.6589 350.333 99.467L350.922 99.481C350.808 89.6236 348.557 84.1258 344.503 81.0313C340.469 77.9524 334.725 77.3203 327.833 76.991C326.659 76.9349 325.449 76.8876 324.205 76.839C310.807 76.3151 293.512 75.6389 274.894 62.1724C266.897 56.3882 262.158 50.615 259.739 45.0118C257.323 39.4113 257.215 33.9583 258.523 28.7971C261.143 18.4563 269.436 9.30158 276.2 2.55442L275.764 2.16744ZM250.891 30.0839C253.549 19.5903 261.944 10.3449 268.705 3.60056L269.141 3.98754C262.377 10.7347 254.084 19.8894 251.464 30.2302C250.156 35.3914 250.264 40.8444 252.68 46.4449C255.099 52.0482 259.838 57.8213 267.835 63.6055C286.453 77.072 303.748 77.7482 317.146 78.2721C318.39 78.3207 319.6 78.368 320.774 78.4241C327.666 78.7534 333.41 79.3855 337.444 82.4645C341.498 85.5589 343.749 91.0567 343.863 100.914L343.274 100.9C343.161 91.092 340.918 85.8165 337.083 82.8889C333.227 79.9459 327.686 79.3074 320.765 78.9768C319.593 78.9208 318.383 78.8736 317.139 78.825C303.735 78.3023 286.264 77.621 267.487 64.0394C259.426 58.2095 254.605 52.3585 252.136 46.6368C249.665 40.9125 249.559 35.3397 250.891 30.0839ZM261.736 5.20677C254.975 11.9511 246.58 21.1965 243.921 31.6901C242.59 36.9459 242.696 42.5187 245.166 48.243C247.636 53.9647 252.457 59.8157 260.517 65.6456C279.294 79.2272 296.765 79.9085 310.169 80.4313L310.169 80.4313C311.414 80.4798 312.624 80.527 313.796 80.583C320.716 80.9136 326.258 81.5521 330.114 84.4951C333.949 87.4227 336.192 92.6982 336.305 102.506L336.894 102.52C336.78 92.663 334.529 87.1651 330.475 84.0707C326.441 80.9917 320.697 80.3596 313.805 80.0304C312.63 79.9742 311.42 79.9269 310.177 79.8783C296.779 79.3544 279.484 78.6782 260.866 65.2117C252.869 59.4275 248.129 53.6544 245.711 48.0512C243.294 42.4506 243.187 36.9976 244.495 31.8364C247.115 21.4956 255.408 12.3409 262.171 5.59375L261.736 5.20677ZM237.075 33.5294C239.734 23.0359 248.129 13.7905 254.89 7.04612L255.325 7.4331C248.562 14.1803 240.268 23.335 237.649 33.6757C236.341 38.837 236.448 44.2899 238.865 49.8905C241.283 55.4937 246.023 61.2668 254.02 67.051C272.638 80.5175 289.933 81.1938 303.33 81.7177C304.574 81.7663 305.784 81.8136 306.959 81.8697C313.85 82.199 319.595 82.831 323.629 85.91C327.683 89.0044 329.934 94.5023 330.048 104.36L329.459 104.346C329.346 94.5376 327.103 89.262 323.267 86.3345C319.412 83.3915 313.87 82.753 306.95 82.4223C305.778 82.3663 304.568 82.3191 303.323 82.2706L303.323 82.2706C289.919 81.7479 272.448 81.0665 253.671 67.485C245.611 61.6551 240.789 55.8041 238.32 50.0824C235.85 44.358 235.744 38.7853 237.075 33.5294ZM248.191 9.15854C241.43 15.9029 233.035 25.1483 230.377 35.6418C229.045 40.8977 229.151 46.4705 231.622 52.1948C234.091 57.9165 238.912 63.7675 246.972 69.5974C265.749 83.1789 283.221 83.8603 296.624 84.383L296.624 84.383L296.624 84.383C297.869 84.4316 299.079 84.4787 300.251 84.5348C307.171 84.8654 312.713 85.5039 316.569 88.4469C320.404 91.3745 322.647 96.65 322.76 106.458L323.349 106.472C323.235 96.6147 320.984 91.1169 316.93 88.0224C312.896 84.9435 307.152 84.3114 300.26 83.9821C299.086 83.926 297.875 83.8787 296.632 83.8301C283.234 83.3062 265.939 82.63 247.321 69.1635C239.324 63.3793 234.584 57.6061 232.166 52.0029C229.749 46.4023 229.642 40.9494 230.95 35.7881C233.57 25.4474 241.863 16.2927 248.627 9.54552L248.191 9.15854Z" fill="url(#paint0_radial_1_188)" fill-opacity="0.58"/>
<path d="M21.07 25V19.82L24.51 25H25.77V17.69H24.51V22.87L21.08 17.69H19.81V25H21.07ZM29.4181 25.13C30.7081 25.13 31.6081 24.48 31.8181 23.4H30.6881C30.5481 23.87 30.1081 24.13 29.4381 24.13C28.6281 24.13 28.1681 23.69 28.0781 22.82L31.7981 22.81V22.44C31.7981 20.9 30.8581 19.91 29.3781 19.91C27.9281 19.91 26.9181 20.98 26.9181 22.53C26.9181 24.06 27.9481 25.13 29.4181 25.13ZM29.3881 20.91C30.1181 20.91 30.5881 21.36 30.5881 22.04H28.1081C28.2281 21.3 28.6681 20.91 29.3881 20.91ZM33.6497 25H34.8397L35.5197 22.88C35.7697 22.07 35.8597 21.72 35.9097 21.49C35.9497 21.74 36.0597 22.21 36.2597 22.86L36.9397 25H38.0797L39.7897 20.06H38.4997L37.8397 22.18C37.7497 22.49 37.5897 23.08 37.5097 23.45C37.4497 23.12 37.2497 22.38 37.1897 22.18L36.5297 20.06H35.2897L34.6097 22.18C34.4497 22.67 34.3597 22.98 34.2697 23.46C34.1797 23 34.0797 22.57 33.9697 22.18L33.3197 20.06H32.0497L33.6497 25ZM44.0338 25L44.6238 23.31H47.3538L47.9438 25H49.2938L46.6538 17.69H45.3438L42.7038 25H44.0338ZM45.8338 19.87C45.9038 19.67 45.9638 19.45 45.9938 19.31C46.0138 19.46 46.0838 19.68 46.1438 19.87L46.9838 22.23H45.0038L45.8338 19.87ZM51.2604 25V17.56H50.0504V25H51.2604ZM53.6702 25L53.7502 24.23C54.0402 24.8 54.6702 25.13 55.4102 25.13C56.8302 25.13 57.7602 24.08 57.7602 22.56C57.7602 21 56.9002 19.9 55.4902 19.9C54.7402 19.9 54.0802 20.23 53.7602 20.78V17.56H52.5402V25H53.6702ZM53.7702 22.51C53.7702 21.62 54.3202 21 55.1602 21C56.0202 21 56.5302 21.63 56.5302 22.51C56.5302 23.39 56.0202 24.01 55.1602 24.01C54.3202 24.01 53.7702 23.4 53.7702 22.51ZM61.9644 20.06V22.65C61.9644 23.59 61.5944 24.04 60.8244 24.04C60.1444 24.04 59.7744 23.66 59.7744 22.72V20.06H58.5544V23.15C58.5544 24.36 59.2244 25.13 60.3644 25.13C61.0244 25.13 61.6644 24.81 61.9644 24.34L62.0544 25H63.1844V20.06H61.9644ZM65.6645 25V22.2C65.6645 21.4 66.1345 21.02 66.7145 21.02C67.2945 21.02 67.6645 21.39 67.6645 22.08V25H68.8845V22.2C68.8845 21.39 69.3345 21.01 69.9245 21.01C70.5045 21.01 70.8845 21.38 70.8845 22.09V25H72.0945V21.77C72.0945 20.63 71.4345 19.91 70.2345 19.91C69.4845 19.91 68.9045 20.28 68.6545 20.85C68.3945 20.28 67.8745 19.91 67.1245 19.91C66.4145 19.91 65.9145 20.23 65.6645 20.64L65.5645 20.06H64.4445V25H65.6645Z" fill="#FBFBFB"/>
<path d="M20.053 99H23.901C25.864 99 26.995 98.051 26.995 96.426C26.995 95.321 26.488 94.567 25.487 94.242C26.384 93.865 26.852 93.111 26.852 92.058C26.852 90.472 25.708 89.497 23.836 89.497H20.053V99ZM23.693 90.966C24.629 90.966 25.149 91.408 25.149 92.227C25.149 93.072 24.642 93.553 23.732 93.553H21.717V90.966H23.693ZM23.836 94.957C24.759 94.957 25.292 95.412 25.292 96.218C25.292 97.076 24.772 97.531 23.836 97.531H21.717V94.957H23.836ZM29.0798 91.291C29.5998 91.291 30.0288 90.862 30.0288 90.329C30.0288 89.796 29.5998 89.38 29.0798 89.38C28.5338 89.38 28.1048 89.796 28.1048 90.329C28.1048 90.862 28.5338 91.291 29.0798 91.291ZM28.2868 99H29.8728V92.578H28.2868V99ZM33.1104 99V89.328H31.5374V99H33.1104ZM36.3731 99V89.328H34.8001V99H36.3731ZM38.8298 91.291C39.3498 91.291 39.7788 90.862 39.7788 90.329C39.7788 89.796 39.3498 89.38 38.8298 89.38C38.2838 89.38 37.8548 89.796 37.8548 90.329C37.8548 90.862 38.2838 91.291 38.8298 91.291ZM38.0368 99H39.6228V92.578H38.0368V99ZM44.1344 99.169C45.8114 99.169 46.9814 98.324 47.2544 96.92H45.7854C45.6034 97.531 45.0314 97.869 44.1604 97.869C43.1074 97.869 42.5094 97.297 42.3924 96.166L47.2284 96.153V95.672C47.2284 93.67 46.0064 92.383 44.0824 92.383C42.1974 92.383 40.8844 93.774 40.8844 95.789C40.8844 97.778 42.2234 99.169 44.1344 99.169ZM44.0954 93.683C45.0444 93.683 45.6554 94.268 45.6554 95.152H42.4314C42.5874 94.19 43.1594 93.683 44.0954 93.683ZM58.1376 99V97.466H53.8996V94.944H57.6956V93.475H53.8996V91.031H58.1376V89.497H52.2356V99H58.1376ZM60.5007 91.291C61.0207 91.291 61.4497 90.862 61.4497 90.329C61.4497 89.796 61.0207 89.38 60.5007 89.38C59.9547 89.38 59.5257 89.796 59.5257 90.329C59.5257 90.862 59.9547 91.291 60.5007 91.291ZM59.7077 99H61.2937V92.578H59.7077V99ZM64.5313 99V89.328H62.9583V99H64.5313ZM66.988 91.291C67.508 91.291 67.937 90.862 67.937 90.329C67.937 89.796 67.508 89.38 66.988 89.38C66.442 89.38 66.013 89.796 66.013 90.329C66.013 90.862 66.442 91.291 66.988 91.291ZM66.195 99H67.781V92.578H66.195V99ZM68.9256 97.05C68.9256 98.311 69.9396 99.169 71.5386 99.169C73.1246 99.169 74.2296 98.363 74.2296 97.063C74.2296 96.075 73.6836 95.581 72.6046 95.334L71.4476 95.061C70.9016 94.931 70.6156 94.697 70.6156 94.333C70.6156 93.852 70.9796 93.566 71.6036 93.566C72.2146 93.566 72.5786 93.917 72.5916 94.463H74.0996C74.0866 93.215 73.1116 92.383 71.6686 92.383C70.1866 92.383 69.1206 93.137 69.1206 94.398C69.1206 95.425 69.6796 95.971 70.8366 96.231L71.9936 96.504C72.5656 96.634 72.7346 96.868 72.7346 97.193C72.7346 97.661 72.3316 97.96 71.5906 97.96C70.8626 97.96 70.4466 97.609 70.4336 97.05H68.9256ZM77.0232 99V95.49C77.0232 94.528 77.6082 93.826 78.6092 93.826C79.4152 93.826 79.9482 94.346 79.9482 95.425V99H81.5342V95.048C81.5342 93.384 80.7022 92.383 79.1162 92.383C78.1932 92.383 77.4392 92.786 77.0362 93.41V89.328H75.4372V99H77.0232Z" fill="#FBFBFB"/>
<path d="M22.971 50V44.11H29.127V50H31.559V36.111H29.127V41.849H22.971V36.111H20.539V50H22.971ZM37.0916 50.247C38.5546 50.247 39.8276 49.582 40.2266 48.613L40.3976 50H42.4306V44.3C42.4306 41.697 40.8726 40.329 38.3456 40.329C35.7996 40.329 34.1276 41.659 34.1276 43.692H36.1036C36.1036 42.704 36.8636 42.134 38.2316 42.134C39.4096 42.134 40.1696 42.647 40.1696 43.92V44.129L37.3576 44.338C35.1346 44.509 33.8806 45.592 33.8806 47.321C33.8806 49.088 35.0966 50.247 37.0916 50.247ZM37.8516 48.499C36.8066 48.499 36.2366 48.081 36.2366 47.226C36.2366 46.466 36.7876 45.991 38.2316 45.858L40.1886 45.706V46.2C40.1886 47.644 39.2766 48.499 37.8516 48.499ZM44.7077 54.351H47.0257V48.746C47.6147 49.696 48.8307 50.247 50.2367 50.247C53.0297 50.247 54.6257 48.119 54.6257 45.193C54.6257 42.248 52.8777 40.329 50.2367 40.329C48.8117 40.329 47.5767 40.956 47.0067 42.039L46.8547 40.614H44.7077V54.351ZM47.0447 45.307C47.0447 43.616 48.0897 42.438 49.6857 42.438C51.3197 42.438 52.2887 43.635 52.2887 45.307C52.2887 46.979 51.3197 48.157 49.6857 48.157C48.0897 48.157 47.0447 46.998 47.0447 45.307ZM56.4714 54.351H58.7894V48.746C59.3784 49.696 60.5944 50.247 62.0004 50.247C64.7934 50.247 66.3894 48.119 66.3894 45.193C66.3894 42.248 64.6414 40.329 62.0004 40.329C60.5754 40.329 59.3404 40.956 58.7704 42.039L58.6184 40.614H56.4714V54.351ZM58.8084 45.307C58.8084 43.616 59.8534 42.438 61.4494 42.438C63.0834 42.438 64.0524 43.635 64.0524 45.307C64.0524 46.979 63.0834 48.157 61.4494 48.157C59.8534 48.157 58.8084 46.998 58.8084 45.307ZM69.3941 38.733C70.1541 38.733 70.7811 38.106 70.7811 37.327C70.7811 36.548 70.1541 35.94 69.3941 35.94C68.5961 35.94 67.9691 36.548 67.9691 37.327C67.9691 38.106 68.5961 38.733 69.3941 38.733ZM68.2351 50H70.5531V40.614H68.2351V50ZM77.147 50.247C79.598 50.247 81.308 49.012 81.707 46.96H79.56C79.294 47.853 78.458 48.347 77.185 48.347C75.646 48.347 74.772 47.511 74.601 45.858L81.669 45.839V45.136C81.669 42.21 79.883 40.329 77.071 40.329C74.316 40.329 72.397 42.362 72.397 45.307C72.397 48.214 74.354 50.247 77.147 50.247ZM77.09 42.229C78.477 42.229 79.37 43.084 79.37 44.376H74.658C74.886 42.97 75.722 42.229 77.09 42.229ZM89.4141 40.576C89.0341 40.481 88.7111 40.443 88.3881 40.443C87.1341 40.443 86.2411 41.07 85.8421 42.001L85.7091 40.633H83.5241V50H85.8421V45.44C85.8421 43.616 86.8871 42.723 88.5591 42.723H89.4141V40.576ZM95.2302 38.353H99.2962V50H101.728V38.353H105.794V36.111H95.2302V38.353ZM109.629 50V44.87C109.629 43.464 110.484 42.438 111.947 42.438C113.125 42.438 113.904 43.198 113.904 44.775V50H116.222V44.224C116.222 41.792 115.006 40.329 112.688 40.329C111.339 40.329 110.237 40.918 109.648 41.83V35.864H107.311V50H109.629ZM121.293 50.247C122.756 50.247 124.029 49.582 124.428 48.613L124.599 50H126.632V44.3C126.632 41.697 125.074 40.329 122.547 40.329C120.001 40.329 118.329 41.659 118.329 43.692H120.305C120.305 42.704 121.065 42.134 122.433 42.134C123.611 42.134 124.371 42.647 124.371 43.92V44.129L121.559 44.338C119.336 44.509 118.082 45.592 118.082 47.321C118.082 49.088 119.298 50.247 121.293 50.247ZM122.053 48.499C121.008 48.499 120.438 48.081 120.438 47.226C120.438 46.466 120.989 45.991 122.433 45.858L124.39 45.706V46.2C124.39 47.644 123.478 48.499 122.053 48.499ZM131.227 50V44.946C131.227 43.426 132.101 42.438 133.526 42.438C134.723 42.438 135.502 43.198 135.502 44.775V50H137.82V44.224C137.82 41.792 136.604 40.329 134.248 40.329C132.975 40.329 131.835 40.88 131.246 41.83L131.056 40.614H128.909V50H131.227ZM29.165 76V73.758H22.971V70.072H28.519V67.925H22.971V64.353H29.165V62.111H20.539V76H29.165ZM33.7115 76H35.9915L39.9055 66.614H37.5115L35.8015 70.927C35.4025 71.953 35.0605 72.941 34.9275 73.53C34.8135 73.017 34.4905 72.048 34.0915 70.927L32.4575 66.614H29.9875L33.7115 76ZM44.9731 76.247C47.4241 76.247 49.1341 75.012 49.5331 72.96H47.3861C47.1201 73.853 46.2841 74.347 45.0111 74.347C43.4721 74.347 42.5981 73.511 42.4271 71.858L49.4951 71.839V71.136C49.4951 68.21 47.7091 66.329 44.8971 66.329C42.1421 66.329 40.2231 68.362 40.2231 71.307C40.2231 74.214 42.1801 76.247 44.9731 76.247ZM44.9161 68.229C46.3031 68.229 47.1961 69.084 47.1961 70.376H42.4841C42.7121 68.97 43.5481 68.229 44.9161 68.229ZM57.2403 66.576C56.8603 66.481 56.5373 66.443 56.2143 66.443C54.9603 66.443 54.0673 67.07 53.6683 68.001L53.5353 66.633H51.3503V76H53.6683V71.44C53.6683 69.616 54.7133 68.723 56.3853 68.723H57.2403V66.576Z" fill="#FBFBFB"/>
</g>
<defs>
<radialGradient id="paint0_radial_1_188" cx="0" cy="0" r="1" gradientUnits="userSpaceOnUse" gradientTransform="translate(307.981 40.6409) rotate(44.6554) scale(82.2368 83.1472)">
<stop stop-color="white"/>
<stop offset="1" stop-color="#1E1E1E" stop-opacity="0"/>
<stop offset="1" stop-color="#0E0E35" stop-opacity="0"/>
<stop offset="1" stop-color="white" stop-opacity="0"/>
</radialGradient>
<clipPath id="clip0_1_188">
<rect width="334" height="118" rx="30" fill="white"/>
</clipPath>
</defs>
</svg>
